inDegrees=no
num_controls=7
num_derivatives=13
num_iterations=119
num_multipliers=7
num_parameters=0
num_slacks=7
num_states=26
objective=0.506263
objective_accelerations=0.019641
objective_balance=0.003486
objective_effort=0.036528
objective_height=0.441186
objective_ligament=0.005422
solver_duration=1296.266253
status=Solve_Succeeded
success=true
DataType=double
version=3
OpenSimVersion=4.5
endheader
time	/jointset/ground_pelvis/pelvis_tilt/value	/jointset/ground_pelvis/pelvis_tx/value	/jointset/ground_pelvis/pelvis_ty/value	/jointset/hip_r/hip_flexion_r/value	/jointset/hip_r/hip_adduction_r/value	/jointset/hip_r/hip_rotation_r/value	/jointset/back/lumbar_extension/value	/jointset/patellofemoral_r/patellar_flexion_r/value	/jointset/knee_r/knee_flexion_r/value	/jointset/knee_r/knee_adduction_r/value	/jointset/knee_r/knee_rotation_r/value	/jointset/ankle_r/ankle_angle_r/value	/jointset/subtalar_r/subtalar_angle_r/value	/jointset/ground_pelvis/pelvis_tilt/speed	/jointset/ground_pelvis/pelvis_tx/speed	/jointset/ground_pelvis/pelvis_ty/speed	/jointset/hip_r/hip_flexion_r/speed	/jointset/hip_r/hip_adduction_r/speed	/jointset/hip_r/hip_rotation_r/speed	/jointset/back/lumbar_extension/speed	/jointset/patellofemoral_r/patellar_flexion_r/speed	/jointset/knee_r/knee_flexion_r/speed	/jointset/knee_r/knee_adduction_r/speed	/jointset/knee_r/knee_rotation_r/speed	/jointset/ankle_r/ankle_angle_r/speed	/jointset/subtalar_r/subtalar_angle_r/speed	/forceset/tau_hip_flexion_r	/forceset/tau_hip_adduction_r	/forceset/tau_hip_rotation_r	/forceset/tau_knee_flexion_r	/forceset/tau_ankle_angle_r	/forceset/tau_subtalar_angle_r	/forceset/tau_lumbar_extension	lambda_cid13_p0	lambda_cid14_p0	lambda_cid14_p1	lambda_cid14_p2	lambda_cid14_p3	lambda_cid14_p4	lambda_cid14_p5	/jointset/ground_pelvis/pelvis_tilt/accel	/jointset/ground_pelvis/pelvis_tx/accel	/jointset/ground_pelvis/pelvis_ty/accel	/jointset/hip_r/hip_flexion_r/accel	/jointset/hip_r/hip_adduction_r/accel	/jointset/hip_r/hip_rotation_r/accel	/jointset/back/lumbar_extension/accel	/jointset/patellofemoral_r/patellar_flexion_r/accel	/jointset/knee_r/knee_flexion_r/accel	/jointset/knee_r/knee_adduction_r/accel	/jointset/knee_r/knee_rotation_r/accel	/jointset/ankle_r/ankle_angle_r/accel	/jointset/subtalar_r/subtalar_angle_r/accel	gamma_cid13_p0	gamma_cid14_p0	gamma_cid14_p1	gamma_cid14_p2	gamma_cid14_p3	gamma_cid14_p4	gamma_cid14_p5
1.5	0.01343831051889905	0.09014508932021222	0.9031252961440714	0.4254129936385943	-0.22761134344599	-0.1629312932918234	-0.2660230527335387	0.5243431332641918	0.5243431332643465	0.06441927573585314	0.1733144096527336	0.2503166980444782	0.05661165687556046	-0.1364782649246807	0.03529953923323015	0.188513916623077	-0.7149355847032562	0.02431279624278712	-0.256905462058065	0.6627522832746172	-1.41112444229448	-1.411124442294564	0.218300638218962	0.002960522094225499	-0.6384273095994021	-0.1499403116952014	0.01261718443766683	-0.02831812930827625	0.001293222583781884	-0.3342083998920197	0.06896082647950527	-0.02043115919895664	0.07178896176076581	-39.61590727495117	-21.05794245427175	-8.190508557180125	-3.225645622691871	4.189122274424707	-676.6495888626069	59.98232691195331	-0.07079704210165125	0.1385175599351925	-0.2881350933487683	-0.5323013868744407	-0.0112313849293992	-0.4483697105159726	0.9695607183960037	-0.8514136768062726	-0.8514136768062721	0.3547489022604992	-0.002968751047506357	-0.3492616237913711	0.003459566084203815	7.084426611809163e-08	3.913010202732461e-08	-6.014185201318494e-07	5.150416021442097e-07	5.28987362944835e-08	-2.567302628015449e-09	-6.678539238919425e-07
1.51	0.01206992339702993	0.09050503957372251	0.9049955356801969	0.4182383160307514	-0.2273692563504877	-0.1655222972427776	-0.2593474034512279	0.5101916453170418	0.5101916453171328	0.0666208988805852	0.1733441405044163	0.2439159275402306	0.05511205427829793	-0.1371658540306861	0.03669338473460988	0.1854939913683401	-0.7199159343572362	0.0241002216879561	-0.2612471952337392	0.6722979441311105	-1.418956331373352	-1.418956331373308	0.2220235931540284	0.002961542819016628	-0.6416194528064206	-0.149957089818441	0.01494678386429886	-0.03006571554024641	0.0007955218057840653	-0.330180730624767	0.072553760321011	-0.02121258185509235	0.06905238688177598	-40.08196044682379	-19.83672724290353	-8.211215807331813	-3.342095079833438	3.592058875979037	-674.726552812666	60.09097056879285	-0.06273703485195296	0.1402597488017175	-0.3149169846511363	-0.4682948229634527	-0.0268963814829935	-0.4197506078906623	0.9351244108574933	-0.7165701057339281	-0.7165701057146261	0.3809541363891912	-0.001885668458211675	-0.2880769369915495	-0.0008189142583249192	7.671096812382695e-08	4.509281890888472e-08	-6.558136112573205e-07	5.501171877757167e-07	5.334090306259303e-08	1.279551776068042e-08	-7.15549865191757e-07
1.52	0.01069566094610433	0.09087901662295922	0.9068343768151521	0.4110163563127162	-0.2271294201786705	-0.1681552536228525	-0.252578686432034	0.4959683397626442	0.4959683397626692	0.06885972864411946	0.173373176932804	0.2374864583503464	0.05361296941725722	-0.1376533307367767	0.03810489837851764	0.1822342363890092	-0.7243920067433599	0.0238626115042056	-0.2652959478813129	0.681365830650856	-1.425487963744472	-1.425487963744299	0.2257419619794735	0.00282163743578297	-0.6441670467268171	-0.1498367644508922	0.01727638329096926	-0.03181330177223168	0.0002978210277990184	-0.3261530613575046	0.07614669416251314	-0.02199400451124918	0.06631581200282211	-40.51453306596403	-18.6242905895527	-8.231432587830195	-3.460939104040832	2.989988175170565	-672.953145385957	60.24899640863966	-0.03077456211866176	0.1420511884407862	-0.336101038267565	-0.4314459333031869	-0.01623851071329239	-0.38977360489591	0.8740058510464518	-0.5913623352559001	-0.5913623352558492	0.353831680336214	-0.03115397265244702	-0.2203517664669682	0.03088026424187262	8.158078822612442e-08	5.07415300693797e-08	-7.005996555453426e-07	5.81994692788914e-07	5.307681710214506e-08	2.894724894439846e-08	-7.587400797824136e-07
1.53	0.009317595455917175	0.09126716076508379	0.9086394826569708	0.4037520596180432	-0.2268921253456785	-0.1708276201606634	-0.2457218526768897	0.4816861531348101	0.4816861531348694	0.07113563627311148	0.173400486458393	0.2310346575531053	0.05211569980537741	-0.1379279004516053	0.03952292727040427	0.1787511049994281	-0.7283763858821291	0.02359154773334763	-0.2691657081679443	0.6899133199130575	-1.430728256176112	-1.430728256175955	0.2294229731120803	0.002652704317607172	-0.6460885518096663	-0.1495960324520713	0.01967165268783551	-0.03360325502861698	-0.0002068895128855237	-0.3220902045791539	0.07965353593987426	-0.02285062662930967	0.06352641539910865	-40.91248520452831	-17.44767674298939	-8.294661260689759	-3.568264627310076	2.463175005861457	-671.211465657419	60.35358003289434	-0.02101119290401721	0.1415386269536505	-0.3597822290358996	-0.3682848493550645	-0.03322555046013842	-0.3837140038050932	0.8319803941122638	-0.4572143366129847	-0.4572143366153497	0.3726880604448597	-0.007793820334064713	-0.1623512372780878	0.02379408698902424	8.539142130601923e-08	5.605661015124297e-08	-7.351760875685751e-07	6.10474237145157e-07	5.206233761760473e-08	4.593719784782755e-08	-7.971429597445899e-07
1.54	0.007937741665237929	0.09166945717360557	0.9104086845769472	0.3964506489429529	-0.2266576781984256	-0.1735383116539966	-0.23878217204306	0.467358193254773	0.4673581932548519	0.07344784445958313	0.1734265004849861	0.2245667814334192	0.05062146239734342	-0.138010990836005	0.04093535165796428	0.1750534520205517	-0.731814802828548	0.02329307435496661	-0.2729609389849059	0.6979352063874615	-1.434642614187548	-1.434642614187406	0.2330020734735633	0.002562537642076741	-0.647382111215883	-0.1492303236817773	0.02206692208474708	-0.03539320828501259	-0.0007116000536920693	-0.318027347800783	0.08316037771723522	-0.02370724874738148	0.06073701879543539	-41.27505132204605	-16.27790563324325	-8.356963292652779	-3.678165160960373	1.925605328337195	-669.5924060906057	60.50784932941559	0.007521303967171525	0.140930287575438	-0.3790053561266623	-0.3222534948331606	-0.02172043221789289	-0.3748677109620029	0.7688852934869795	-0.3261754512149544	-0.3261754512149649	0.3334495261114511	-0.0154006841233557	-0.09476263114047476	0.05587561853650326	9.16604410398862e-08	6.143538036242428e-08	-7.998691767618598e-07	6.4080398682117e-07	5.341326536653138e-08	6.42554409885021e-08	-8.479311793248067e-07
1.55	0.006558149707597162	0.09208590463396683	0.9121399091497324	0.3891172961162309	-0.2264264329618288	-0.1762863732219284	-0.2317650560347015	0.4529976378370473	0.4529976378370302	0.07579558967808478	0.1734518781526831	0.2180891465417253	0.04913140846317867	-0.1378748551749187	0.04235818653910796	0.1711600932280816	-0.7347693139409934	0.02294765099504769	-0.2765986495363863	0.7053988102146608	-1.437242162056597	-1.437242162056416	0.2365474168221616	0.002493261443518337	-0.6480301088972324	-0.148762662822545	0.02471468640835176	-0.0375030760589929	-0.001237546859905117	-0.3144636993748961	0.08743002455316369	-0.02466325523065361	0.05779381361022257	-41.6017806497549	-14.86982662504257	-8.425229567321331	-3.781942859858284	1.190140716552348	-668.0425973343748	60.71729855173186	0.02154796597683967	0.1435789578633881	-0.399187510838758	-0.2690754966518768	-0.04217964260851771	-0.3501794308882101	0.7217201669584585	-0.1929195232455236	-0.1929195232396132	0.3650603372071693	-0.005534445057580146	-0.03258532301499856	0.04481302043771414	1.00761949744634e-07	6.688753267912421e-08	-8.992618926945506e-07	6.732654948003959e-07	5.748955362358289e-08	8.410411009817676e-08	-9.12989464117113e-07
1.56	0.005180896760330891	0.0925167042170356	0.9138312628605866	0.3817569930629518	-0.2261988872297706	-0.1790692032361081	-0.2246759795401447	0.4386178719269339	0.4386178719268189	0.0781787850496668	0.1734759943869252	0.2116084782759416	0.04764655147777065	-0.1375431887619414	0.04380577619946668	0.1670792796343502	-0.737204848141503	0.02255317344594375	-0.2799146282337512	0.7123273036267338	-1.438484712665471	-1.438484712665251	0.2400921040896853	0.002310250951539992	-0.6479887860338945	-0.1481909339304676	0.02736245073199293	-0.03961294383298113	-0.001763493666106834	-0.3109000509489984	0.09169967138909157	-0.02561926171393623	0.05485060842504174	-41.89253934894477	-13.46623049024389	-8.492237099580604	-3.888256019121684	0.4380935200521489	-666.5807354032793	60.97593660931788	0.04662745434540021	0.1458812434184192	-0.4164963163789172	-0.21845811244601	-0.03153127005489036	-0.3105213401389328	0.6618632104617383	-0.05477599917996399	-0.05477599917996502	0.3333183098965266	-0.03814754280732836	0.04310147779698292	0.07668922510555032	1.053114237592541e-07	7.351378077641602e-08	-9.385821520568109e-07	7.05303251259735e-07	5.563357944779106e-08	1.087393776377482e-07	-9.535154959210679e-07
